<?xml version="1.0" standalone="no"?>
<!DOCTYPE svg PUBLIC "-//W3C//DTD SVG 20010904//EN"
 "http://www.w3.org/TR/2001/REC-SVG-20010904/DTD/svg10.dtd">
<svg version="1.0" xmlns="http://www.w3.org/2000/svg"
 width="708.000000pt" height="708.000000pt" viewBox="0 0 708.000000 708.000000"
 preserveAspectRatio="xMidYMid meet">
<metadata>
Created by potrace 1.11, written by Peter Selinger 2001-2013
</metadata>
<g transform="translate(0.000000,708.000000) scale(0.100000,-0.100000)"
fill="#000000" stroke="none">
<path d="M1060 7068 c0 -9 7 -100 16 -203 8 -102 14 -191 12 -196 -2 -6 -63
33 -135 85 -73 53 -134 92 -137 88 -2 -4 37 -99 86 -212 49 -113 92 -212 94
-220 4 -11 -13 -24 -53 -43 -32 -16 -87 -45 -123 -65 l-64 -35 43 -19 c23 -10
90 -32 147 -50 57 -17 104 -35 104 -40 0 -5 -29 -54 -65 -108 -134 -206 -305
-479 -305 -488 0 -5 50 6 110 26 61 19 113 32 116 29 4 -3 -17 -136 -45 -294
-28 -158 -51 -294 -51 -300 0 -10 26 -13 95 -13 52 0 95 -2 95 -5 0 -3 -25
-56 -56 -117 l-56 -112 27 -65 c15 -36 29 -72 32 -78 4 -9 -7 -13 -37 -13
-107 0 -149 -136 -150 -481 0 -278 23 -459 77 -614 66 -184 221 -435 353 -567
106 -107 164 -138 260 -138 l66 0 19 -56 c69 -202 318 -455 654 -664 56 -35
101 -66 101 -70 0 -3 -15 -20 -32 -36 -32 -29 -42 -32 -278 -68 -289 -44 -544
-98 -618 -131 -77 -35 -166 -109 -243 -203 -107 -129 -168 -257 -206 -427 -17
-79 -31 -482 -32 -907 l-1 -258 2608 0 2609 0 6 122 c11 192 8 875 -3 967 -27
211 -135 428 -290 581 -76 75 -172 130 -272 154 -76 19 -341 64 -570 97 l-157
22 -81 52 -81 52 93 59 c149 94 326 231 424 330 78 77 99 105 142 192 28 56
59 127 68 157 16 49 21 55 39 50 11 -4 50 -9 88 -12 59 -5 74 -2 125 23 173
84 458 496 527 765 61 234 60 812 -1 930 -8 16 -12 34 -9 39 3 5 -4 79 -15
166 -12 86 -19 161 -17 168 3 6 35 22 72 36 37 14 70 30 72 37 3 6 -45 127
-106 268 -61 141 -111 260 -111 266 0 5 29 9 65 9 45 0 65 4 65 13 0 11 -48
195 -105 397 -41 148 -134 428 -166 498 -31 69 -31 68 54 48 l58 -14 17 35 17
36 -54 48 c-30 27 -53 50 -50 52 2 2 59 46 127 97 67 51 122 97 122 101 0 5
-15 11 -32 14 -26 4 -434 55 -444 55 -1 0 -7 38 -14 85 l-12 85 -2103 0 -2103
0 -116 -124 -115 -125 -28 33 c-16 17 -55 70 -87 116 -73 104 -76 108 -76 88z
m3730 -788 c0 -5 -29 -91 -65 -191 -36 -101 -64 -183 -62 -184 1 -1 98 34 214
78 117 44 215 78 218 76 3 -3 -22 -72 -54 -152 l-59 -147 21 -15 c32 -22 41
-19 81 25 29 33 38 37 43 24 6 -17 9 -348 2 -377 -3 -11 6 -24 22 -34 26 -16
28 -16 83 32 31 26 58 46 61 44 2 -3 -30 -114 -71 -248 -42 -133 -73 -245 -71
-248 3 -2 50 19 106 46 55 28 103 51 106 51 3 0 5 -73 5 -162 0 -120 -7 -208
-25 -333 -13 -93 -25 -173 -25 -177 0 -5 -17 -8 -39 -8 l-38 0 -7 71 -7 71
-72 33 c-187 86 -361 118 -637 119 -250 0 -367 -16 -610 -82 l-175 -48 -1 -39
c-1 -22 -2 -48 -3 -57 -1 -17 -21 -18 -266 -18 l-265 0 0 56 c0 53 -1 56 -33
69 -56 23 -307 83 -428 101 -161 25 -476 25 -619 0 -123 -21 -271 -67 -352
-107 -61 -31 -58 -26 -70 -139 -3 -23 -8 -25 -57 -28 -30 -2 -57 0 -62 5 -7 7
-79 400 -79 431 0 6 38 42 85 79 47 38 85 75 85 83 0 8 -20 93 -44 187 -24 95
-40 170 -36 168 5 -3 33 -44 62 -91 50 -81 55 -85 82 -79 16 3 31 7 33 9 3 2
-14 131 -36 287 -23 155 -41 291 -41 301 0 16 12 12 90 -27 49 -25 94 -45 99
-45 6 0 -21 91 -60 201 -38 111 -67 204 -64 207 2 3 62 -21 131 -52 70 -31
129 -54 131 -52 3 2 7 59 10 125 3 67 9 121 12 121 3 0 161 -31 351 -69 190
-38 365 -72 390 -76 60 -10 136 -66 284 -209 66 -64 121 -115 122 -113 1 1 -4
47 -11 102 -7 55 -11 101 -10 103 2 2 45 -78 96 -177 52 -99 97 -177 100 -173
3 4 16 84 29 177 13 94 26 175 29 182 4 7 31 -53 61 -132 30 -80 57 -142 61
-137 4 4 19 50 33 104 36 137 84 256 109 273 39 24 408 93 917 170 184 27 190
28 190 15z m1204 -1622 l45 -21 -62 -22 c-34 -11 -64 -19 -66 -18 -4 3 30 83
35 83 2 0 24 -10 48 -22z m-3409 -87 c50 -12 114 -31 144 -43 51 -20 54 -21
67 -4 17 24 8 43 -24 55 -53 21 70 -1 218 -38 l145 -36 5 -260 5 -260 25 0
c25 0 25 1 30 110 5 102 8 116 44 193 l39 82 190 -2 190 -3 36 -80 c32 -72 36
-91 41 -190 5 -109 5 -110 30 -110 l25 0 5 260 5 259 125 33 c118 31 318 68
327 60 2 -2 -30 -19 -72 -37 -87 -38 -98 -48 -80 -73 13 -18 15 -18 52 1 72
37 214 82 311 98 74 13 130 15 237 11 187 -8 210 -15 262 -73 37 -41 44 -46
58 -34 9 8 14 22 12 32 -3 10 -1 18 4 18 17 0 123 -51 131 -63 21 -34 1 -374
-30 -515 -8 -34 -7 -46 5 -58 14 -13 18 -13 30 -1 15 14 46 186 58 320 l7 77
35 0 c32 0 34 -2 29 -27 -11 -55 -38 -274 -34 -278 2 -2 35 33 73 78 l70 82 5
-169 5 -170 54 82 c30 46 55 81 57 79 7 -6 -45 -255 -91 -437 -24 -96 -67
-280 -95 -409 -80 -365 -125 -474 -250 -604 -320 -336 -1088 -735 -1534 -797
-300 -42 -1041 248 -1503 590 -116 85 -283 248 -344 334 -92 131 -127 251
-184 649 -19 136 -51 329 -70 429 -19 101 -35 185 -35 187 0 2 6 -2 14 -8 19
-16 66 3 66 26 0 10 -12 75 -26 146 -15 70 -25 130 -21 133 3 3 40 -18 82 -46
42 -28 79 -50 81 -47 2 2 -4 40 -15 83 -10 43 -17 82 -14 87 2 4 26 7 54 7
l49 0 0 -47 c1 -110 44 -349 65 -357 31 -12 37 20 21 113 -24 142 -38 339 -29
411 8 64 8 65 53 86 53 25 98 40 88 29 -10 -10 10 -35 28 -35 8 0 31 16 53 35
32 30 51 37 122 50 122 21 366 14 484 -14z m-1606 -72 c17 -6 36 -20 42 -30 5
-11 17 -18 27 -17 11 2 47 -40 112 -134 91 -127 97 -141 109 -208 6 -40 10
-75 7 -77 -2 -2 -12 17 -22 43 -41 106 -194 296 -250 310 -30 8 -60 -10 -81
-49 -15 -26 -18 -57 -18 -165 0 -138 6 -156 45 -149 12 2 15 24 15 127 0 84 4
132 13 148 l13 23 28 -23 c29 -23 123 -138 129 -157 2 -6 -11 -14 -29 -18 -18
-3 -51 -25 -76 -49 -38 -36 -44 -47 -41 -75 2 -26 8 -35 25 -37 17 -3 25 5 37
32 16 39 47 63 93 72 28 5 31 3 47 -35 21 -53 21 -91 1 -91 -25 0 -88 -36
-117 -67 -39 -40 -66 -109 -74 -184 -5 -54 -4 -67 11 -79 29 -24 49 0 58 70
12 95 57 167 115 185 20 6 22 3 22 -26 0 -18 -15 -60 -35 -95 -45 -84 -69
-166 -60 -212 10 -53 41 -121 76 -165 45 -55 29 -56 -18 -1 -32 37 -45 45 -62
39 -31 -10 -26 -42 15 -92 50 -61 81 -74 163 -71 52 1 75 -3 101 -18 33 -19
34 -22 57 -149 12 -72 23 -133 23 -137 0 -16 -73 -7 -113 13 -136 70 -390 452
-446 671 -31 123 -45 282 -45 513 0 269 17 375 59 375 6 0 26 -5 44 -11z
m5080 -27 c36 -131 38 -461 6 -707 -19 -146 -32 -189 -102 -330 -110 -223
-272 -434 -370 -484 -51 -26 -113 -27 -142 -3 l-21 17 21 100 c18 86 25 104
52 127 42 37 104 57 160 51 67 -8 88 1 146 59 39 40 51 59 49 78 -5 41 -35 37
-75 -9 -19 -23 -44 -46 -56 -53 -15 -7 -9 3 17 32 42 46 81 124 91 182 9 45
-14 127 -61 220 -54 107 -40 139 31 77 48 -42 65 -78 73 -151 8 -68 28 -92 57
-68 14 12 16 25 11 73 -12 114 -77 211 -161 240 -48 17 -54 39 -30 103 15 41
18 43 48 37 47 -8 77 -30 93 -69 12 -27 20 -35 37 -32 17 2 23 11 25 37 3 28
-3 39 -41 76 -25 24 -59 46 -76 50 -17 4 -31 10 -31 15 0 14 108 146 134 163
24 16 26 16 38 -6 9 -14 13 -62 13 -137 0 -110 6 -140 25 -140 53 0 63 227 14
322 -18 34 -49 51 -78 44 -35 -9 -129 -105 -178 -182 -77 -121 -101 -186 -106
-295 l-5 -96 48 -99 c27 -54 50 -118 53 -140 10 -94 -93 -233 -205 -277 -42
-16 -63 -21 -63 -13 0 22 70 301 79 317 5 9 21 83 36 165 14 82 35 183 45 225
11 42 26 107 34 145 30 139 128 269 259 344 72 41 94 40 106 -8z m-2839 -111
c0 -6 -4 -13 -10 -16 -5 -3 -10 1 -10 9 0 9 5 16 10 16 6 0 10 -4 10 -9z
m-1866 -656 c46 -229 73 -402 64 -411 -3 -2 -24 3 -47 12 -51 20 -126 101
-159 172 -32 71 -27 117 29 229 l44 88 0 114 c-1 112 0 113 13 65 7 -27 32
-148 56 -269z m1461 -1925 c121 -49 348 -121 465 -146 135 -29 316 -25 455 10
130 33 319 99 428 150 43 20 83 36 89 36 7 0 9 -50 6 -152 -4 -126 -8 -163
-26 -208 -85 -216 -333 -314 -797 -314 -199 0 -304 11 -420 45 -144 43 -242
116 -292 218 -27 54 -28 63 -31 235 -3 147 -2 178 10 173 7 -3 58 -24 113 -47z"/>
<path d="M2088 5051 c-31 -10 -79 -31 -105 -46 -59 -35 -191 -134 -218 -165
l-20 -23 20 7 c11 3 74 19 140 36 162 40 247 41 347 1 40 -16 141 -44 223 -62
133 -29 172 -33 345 -36 107 -2 201 0 208 5 11 7 7 21 -17 68 -28 53 -31 55
-26 24 7 -41 -1 -33 -47 44 -22 36 -33 46 -54 46 -32 0 -30 -8 27 -93 l42 -62
-89 86 -89 85 -260 48 c-317 59 -352 62 -427 37z"/>
<path d="M4345 5035 c-60 -13 -155 -34 -210 -47 l-100 -24 -21 -64 -21 -65 5
63 c5 63 5 64 -19 60 -15 -2 -25 -10 -26 -23 -1 -11 -5 -47 -9 -80 l-7 -60 -9
43 c-13 61 -28 52 -28 -18 0 -33 2 -60 4 -60 2 0 26 4 54 10 28 5 126 14 217
20 143 9 188 16 314 50 159 43 299 70 365 70 58 0 135 -24 239 -75 48 -23 87
-39 87 -34 0 5 -39 49 -87 98 -138 140 -203 162 -485 160 -122 0 -176 -5 -263
-24z"/>
<path d="M2080 4515 c-87 -18 -119 -31 -153 -63 -44 -41 -60 -81 -60 -144 1
-81 11 -88 43 -31 32 56 93 94 178 112 92 19 93 18 65 -36 -21 -41 -24 -58
-20 -115 7 -106 69 -189 174 -235 57 -25 176 -23 234 3 122 57 195 185 169
299 -5 22 -7 41 -5 44 7 6 125 -38 163 -61 40 -25 48 -19 28 19 -22 43 -91
102 -152 130 -163 74 -491 113 -664 78z m537 -147 c18 -15 6 -58 -24 -85 -57
-53 -143 -13 -143 68 l0 42 77 -7 c43 -4 83 -12 90 -18z"/>
<path d="M4505 4519 c-258 -32 -439 -110 -488 -211 -9 -18 -14 -34 -12 -36 2
-2 22 6 46 19 33 16 143 59 154 59 0 0 1 -37 1 -82 0 -96 17 -139 81 -200 103
-100 261 -113 380 -32 108 74 153 207 103 309 -12 25 -20 48 -18 51 10 9 115
-17 164 -41 49 -24 104 -84 104 -114 0 -28 18 1 24 39 15 97 -50 193 -154 224
-68 21 -273 29 -385 15z m186 -143 c25 -53 -19 -116 -80 -116 -47 0 -91 41
-91 85 0 46 16 55 92 55 63 0 69 -2 79 -24z"/>
<path d="M3192 3738 c-7 -7 -12 -21 -12 -32 0 -75 -47 -145 -119 -179 l-46
-22 -7 -140 c-4 -84 -2 -145 3 -152 6 -6 40 -16 76 -23 81 -14 135 -40 165
-80 23 -32 46 -38 66 -18 49 49 -50 150 -178 183 l-45 11 -3 81 -3 80 30 13
c40 16 94 70 115 114 29 61 42 142 27 160 -16 19 -52 21 -69 4z"/>
<path d="M3900 2844 c-508 -46 -738 -44 -1133 11 -162 23 -156 26 -92 -57 65
-86 121 -188 130 -240 9 -46 -2 -43 325 -104 l245 -46 180 5 c202 6 313 24
388 65 93 50 335 269 398 360 l30 42 -53 -1 c-29 -1 -217 -16 -418 -35z m250
-53 c0 -41 -30 -73 -104 -111 -36 -18 -66 -35 -66 -38 0 -3 8 -10 17 -17 15
-11 13 -17 -22 -58 -38 -45 -75 -67 -150 -87 -59 -15 -340 -33 -415 -25 -56 5
-329 53 -499 86 l-53 11 7 63 c6 57 4 64 -15 78 -21 15 -56 94 -46 105 3 3 51
0 107 -7 55 -6 200 -16 322 -22 213 -10 235 -9 537 19 410 39 380 38 380 3z"/>
</g>
</svg>
